<mxfile host="app.diagrams.net" modified="2024-01-30T12:14:37.929Z" agent="Mozilla/5.0 (Windows NT 10.0; Win64; x64) AppleWebKit/537.36 (KHTML, like Gecko) Chrome/121.0.0.0 Safari/537.36 Edg/121.0.0.0" etag="VLjVsL2ODO0bGDbCUUOn" version="23.0.2" type="github">
  <diagram name="Страница — 1" id="cjbGRx0S7E2pipC_ybSz">
    <mxGraphModel dx="2946" dy="1111" grid="1" gridSize="10" guides="1" tooltips="1" connect="1" arrows="1" fold="1" page="1" pageScale="1" pageWidth="4681" pageHeight="3300" math="0" shadow="0">
      <root>
        <mxCell id="0" />
        <mxCell id="1" parent="0" />
        <mxCell id="oS2J0Wrdn_PqmQfN7SfS-35" style="edgeStyle=orthogonalEdgeStyle;rounded=0;orthogonalLoop=1;jettySize=auto;html=1;" parent="1" source="oS2J0Wrdn_PqmQfN7SfS-1" target="oS2J0Wrdn_PqmQfN7SfS-3" edge="1">
          <mxGeometry relative="1" as="geometry">
            <mxPoint x="320" y="150" as="targetPoint" />
          </mxGeometry>
        </mxCell>
        <mxCell id="oS2J0Wrdn_PqmQfN7SfS-1" value="New" style="rounded=1;whiteSpace=wrap;html=1;" parent="1" vertex="1">
          <mxGeometry x="120" y="120" width="120" height="60" as="geometry" />
        </mxCell>
        <mxCell id="oS2J0Wrdn_PqmQfN7SfS-37" style="edgeStyle=orthogonalEdgeStyle;rounded=0;orthogonalLoop=1;jettySize=auto;html=1;" parent="1" source="oS2J0Wrdn_PqmQfN7SfS-3" target="oS2J0Wrdn_PqmQfN7SfS-4" edge="1">
          <mxGeometry relative="1" as="geometry" />
        </mxCell>
        <mxCell id="oS2J0Wrdn_PqmQfN7SfS-3" value="Full Analysis" style="rounded=1;whiteSpace=wrap;html=1;" parent="1" vertex="1">
          <mxGeometry x="520" y="120" width="120" height="60" as="geometry" />
        </mxCell>
        <mxCell id="oS2J0Wrdn_PqmQfN7SfS-38" style="edgeStyle=orthogonalEdgeStyle;rounded=0;orthogonalLoop=1;jettySize=auto;html=1;" parent="1" source="oS2J0Wrdn_PqmQfN7SfS-4" target="oS2J0Wrdn_PqmQfN7SfS-5" edge="1">
          <mxGeometry relative="1" as="geometry" />
        </mxCell>
        <mxCell id="oS2J0Wrdn_PqmQfN7SfS-4" value="Development" style="rounded=1;whiteSpace=wrap;html=1;" parent="1" vertex="1">
          <mxGeometry x="720" y="120" width="120" height="60" as="geometry" />
        </mxCell>
        <mxCell id="oS2J0Wrdn_PqmQfN7SfS-39" style="edgeStyle=orthogonalEdgeStyle;rounded=0;orthogonalLoop=1;jettySize=auto;html=1;" parent="1" source="oS2J0Wrdn_PqmQfN7SfS-5" target="oS2J0Wrdn_PqmQfN7SfS-7" edge="1">
          <mxGeometry relative="1" as="geometry">
            <mxPoint x="1320" y="150" as="targetPoint" />
          </mxGeometry>
        </mxCell>
        <mxCell id="oS2J0Wrdn_PqmQfN7SfS-5" value="UAT" style="rounded=1;whiteSpace=wrap;html=1;" parent="1" vertex="1">
          <mxGeometry x="1120" y="120" width="120" height="60" as="geometry" />
        </mxCell>
        <mxCell id="oS2J0Wrdn_PqmQfN7SfS-7" value="&lt;div&gt;Closed&lt;/div&gt;" style="rounded=1;whiteSpace=wrap;html=1;" parent="1" vertex="1">
          <mxGeometry x="1320" y="120" width="120" height="60" as="geometry" />
        </mxCell>
        <mxCell id="oS2J0Wrdn_PqmQfN7SfS-41" style="edgeStyle=orthogonalEdgeStyle;rounded=0;orthogonalLoop=1;jettySize=auto;html=1;" parent="1" source="oS2J0Wrdn_PqmQfN7SfS-12" target="oS2J0Wrdn_PqmQfN7SfS-13" edge="1">
          <mxGeometry relative="1" as="geometry" />
        </mxCell>
        <mxCell id="oS2J0Wrdn_PqmQfN7SfS-12" value="&lt;div&gt;New&lt;/div&gt;" style="rounded=1;whiteSpace=wrap;html=1;" parent="1" vertex="1">
          <mxGeometry x="120" y="280" width="120" height="60" as="geometry" />
        </mxCell>
        <mxCell id="oS2J0Wrdn_PqmQfN7SfS-42" style="edgeStyle=orthogonalEdgeStyle;rounded=0;orthogonalLoop=1;jettySize=auto;html=1;" parent="1" source="oS2J0Wrdn_PqmQfN7SfS-13" target="oS2J0Wrdn_PqmQfN7SfS-14" edge="1">
          <mxGeometry relative="1" as="geometry" />
        </mxCell>
        <mxCell id="oS2J0Wrdn_PqmQfN7SfS-13" value="In Progress" style="rounded=1;whiteSpace=wrap;html=1;" parent="1" vertex="1">
          <mxGeometry x="520" y="280" width="120" height="60" as="geometry" />
        </mxCell>
        <mxCell id="oS2J0Wrdn_PqmQfN7SfS-43" style="edgeStyle=orthogonalEdgeStyle;rounded=0;orthogonalLoop=1;jettySize=auto;html=1;" parent="1" source="oS2J0Wrdn_PqmQfN7SfS-14" target="oS2J0Wrdn_PqmQfN7SfS-15" edge="1">
          <mxGeometry relative="1" as="geometry" />
        </mxCell>
        <mxCell id="oS2J0Wrdn_PqmQfN7SfS-14" value="Acceptance" style="rounded=1;whiteSpace=wrap;html=1;" parent="1" vertex="1">
          <mxGeometry x="1120" y="280" width="120" height="60" as="geometry" />
        </mxCell>
        <mxCell id="oS2J0Wrdn_PqmQfN7SfS-15" value="Done" style="rounded=1;whiteSpace=wrap;html=1;" parent="1" vertex="1">
          <mxGeometry x="1320" y="280" width="120" height="60" as="geometry" />
        </mxCell>
        <mxCell id="oS2J0Wrdn_PqmQfN7SfS-51" style="edgeStyle=orthogonalEdgeStyle;rounded=0;orthogonalLoop=1;jettySize=auto;html=1;" parent="1" source="oS2J0Wrdn_PqmQfN7SfS-23" target="oS2J0Wrdn_PqmQfN7SfS-24" edge="1">
          <mxGeometry relative="1" as="geometry" />
        </mxCell>
        <mxCell id="oS2J0Wrdn_PqmQfN7SfS-23" value="New" style="rounded=1;whiteSpace=wrap;html=1;" parent="1" vertex="1">
          <mxGeometry x="120" y="440" width="120" height="60" as="geometry" />
        </mxCell>
        <mxCell id="oS2J0Wrdn_PqmQfN7SfS-52" style="edgeStyle=orthogonalEdgeStyle;rounded=0;orthogonalLoop=1;jettySize=auto;html=1;" parent="1" source="oS2J0Wrdn_PqmQfN7SfS-24" target="oS2J0Wrdn_PqmQfN7SfS-27" edge="1">
          <mxGeometry relative="1" as="geometry">
            <mxPoint x="500" y="400" as="targetPoint" />
          </mxGeometry>
        </mxCell>
        <mxCell id="oS2J0Wrdn_PqmQfN7SfS-24" value="Backlog" style="rounded=1;whiteSpace=wrap;html=1;" parent="1" vertex="1">
          <mxGeometry x="320" y="440" width="120" height="60" as="geometry" />
        </mxCell>
        <mxCell id="oS2J0Wrdn_PqmQfN7SfS-55" style="edgeStyle=orthogonalEdgeStyle;rounded=0;orthogonalLoop=1;jettySize=auto;html=1;" parent="1" source="oS2J0Wrdn_PqmQfN7SfS-27" target="oS2J0Wrdn_PqmQfN7SfS-28" edge="1">
          <mxGeometry relative="1" as="geometry" />
        </mxCell>
        <mxCell id="oS2J0Wrdn_PqmQfN7SfS-27" value="Development" style="rounded=1;whiteSpace=wrap;html=1;" parent="1" vertex="1">
          <mxGeometry x="520" y="440" width="120" height="60" as="geometry" />
        </mxCell>
        <mxCell id="oS2J0Wrdn_PqmQfN7SfS-56" style="edgeStyle=orthogonalEdgeStyle;rounded=0;orthogonalLoop=1;jettySize=auto;html=1;" parent="1" source="m-A_8NVtthORfa7GAGQP-1" target="oS2J0Wrdn_PqmQfN7SfS-29" edge="1">
          <mxGeometry relative="1" as="geometry" />
        </mxCell>
        <mxCell id="oS2J0Wrdn_PqmQfN7SfS-28" value="Code Review" style="rounded=1;whiteSpace=wrap;html=1;" parent="1" vertex="1">
          <mxGeometry x="720" y="440" width="120" height="60" as="geometry" />
        </mxCell>
        <mxCell id="oS2J0Wrdn_PqmQfN7SfS-57" style="edgeStyle=orthogonalEdgeStyle;rounded=0;orthogonalLoop=1;jettySize=auto;html=1;" parent="1" source="m-A_8NVtthORfa7GAGQP-3" target="oS2J0Wrdn_PqmQfN7SfS-30" edge="1">
          <mxGeometry relative="1" as="geometry" />
        </mxCell>
        <mxCell id="oS2J0Wrdn_PqmQfN7SfS-29" value="Acceptace" style="rounded=1;whiteSpace=wrap;html=1;" parent="1" vertex="1">
          <mxGeometry x="1120" y="440" width="120" height="60" as="geometry" />
        </mxCell>
        <mxCell id="oS2J0Wrdn_PqmQfN7SfS-30" value="Released" style="rounded=1;whiteSpace=wrap;html=1;" parent="1" vertex="1">
          <mxGeometry x="1520" y="440" width="120" height="60" as="geometry" />
        </mxCell>
        <mxCell id="oS2J0Wrdn_PqmQfN7SfS-58" value="" style="endArrow=none;dashed=1;html=1;rounded=0;" parent="1" edge="1">
          <mxGeometry width="50" height="50" relative="1" as="geometry">
            <mxPoint x="80" y="640" as="sourcePoint" />
            <mxPoint x="80" y="80" as="targetPoint" />
          </mxGeometry>
        </mxCell>
        <mxCell id="oS2J0Wrdn_PqmQfN7SfS-59" value="" style="endArrow=none;dashed=1;html=1;rounded=0;" parent="1" edge="1">
          <mxGeometry width="50" height="50" relative="1" as="geometry">
            <mxPoint x="1680" y="640" as="sourcePoint" />
            <mxPoint x="1680" y="80" as="targetPoint" />
          </mxGeometry>
        </mxCell>
        <mxCell id="oS2J0Wrdn_PqmQfN7SfS-60" value="" style="endArrow=classic;startArrow=classic;html=1;rounded=0;fillColor=#dae8fc;strokeColor=#6c8ebf;" parent="1" edge="1">
          <mxGeometry width="50" height="50" relative="1" as="geometry">
            <mxPoint x="80" y="600" as="sourcePoint" />
            <mxPoint x="480" y="600" as="targetPoint" />
          </mxGeometry>
        </mxCell>
        <mxCell id="oS2J0Wrdn_PqmQfN7SfS-70" value="&lt;font style=&quot;font-size: 24px;&quot;&gt;Reaction&lt;/font&gt;" style="edgeLabel;html=1;align=center;verticalAlign=middle;resizable=0;points=[];" parent="oS2J0Wrdn_PqmQfN7SfS-60" vertex="1" connectable="0">
          <mxGeometry x="-0.0014" y="-2" relative="1" as="geometry">
            <mxPoint as="offset" />
          </mxGeometry>
        </mxCell>
        <mxCell id="oS2J0Wrdn_PqmQfN7SfS-72" value="&lt;font style=&quot;font-size: 24px;&quot;&gt;Tele2&lt;/font&gt;" style="edgeLabel;html=1;align=center;verticalAlign=middle;resizable=0;points=[];" parent="oS2J0Wrdn_PqmQfN7SfS-60" vertex="1" connectable="0">
          <mxGeometry x="-0.0001" y="2" relative="1" as="geometry">
            <mxPoint x="600" y="-488" as="offset" />
          </mxGeometry>
        </mxCell>
        <mxCell id="oS2J0Wrdn_PqmQfN7SfS-61" value="" style="endArrow=none;dashed=1;html=1;rounded=0;" parent="1" edge="1">
          <mxGeometry width="50" height="50" relative="1" as="geometry">
            <mxPoint x="480" y="640" as="sourcePoint" />
            <mxPoint x="480" y="80" as="targetPoint" />
          </mxGeometry>
        </mxCell>
        <mxCell id="oS2J0Wrdn_PqmQfN7SfS-62" value="" style="endArrow=classic;startArrow=classic;html=1;rounded=0;fillColor=#d5e8d4;strokeColor=#82b366;" parent="1" edge="1">
          <mxGeometry width="50" height="50" relative="1" as="geometry">
            <mxPoint x="480" y="600" as="sourcePoint" />
            <mxPoint x="1080" y="600" as="targetPoint" />
          </mxGeometry>
        </mxCell>
        <mxCell id="oS2J0Wrdn_PqmQfN7SfS-69" value="&lt;font style=&quot;font-size: 24px;&quot;&gt;In progress&lt;/font&gt;" style="edgeLabel;html=1;align=center;verticalAlign=middle;resizable=0;points=[];" parent="oS2J0Wrdn_PqmQfN7SfS-62" vertex="1" connectable="0">
          <mxGeometry x="-0.0003" relative="1" as="geometry">
            <mxPoint as="offset" />
          </mxGeometry>
        </mxCell>
        <mxCell id="oS2J0Wrdn_PqmQfN7SfS-63" value="" style="endArrow=none;dashed=1;html=1;rounded=0;" parent="1" edge="1">
          <mxGeometry width="50" height="50" relative="1" as="geometry">
            <mxPoint x="1080" y="640" as="sourcePoint" />
            <mxPoint x="1080" y="80" as="targetPoint" />
          </mxGeometry>
        </mxCell>
        <mxCell id="oS2J0Wrdn_PqmQfN7SfS-64" value="" style="endArrow=classic;startArrow=classic;html=1;rounded=0;fillColor=#ffe6cc;strokeColor=#d79b00;fontSize=24;" parent="1" edge="1">
          <mxGeometry width="50" height="50" relative="1" as="geometry">
            <mxPoint x="1080" y="600" as="sourcePoint" />
            <mxPoint x="1680" y="600" as="targetPoint" />
          </mxGeometry>
        </mxCell>
        <mxCell id="oS2J0Wrdn_PqmQfN7SfS-68" value="&lt;font style=&quot;font-size: 24px;&quot;&gt;Acceptace&lt;/font&gt;" style="edgeLabel;html=1;align=center;verticalAlign=middle;resizable=0;points=[];" parent="oS2J0Wrdn_PqmQfN7SfS-64" vertex="1" connectable="0">
          <mxGeometry x="-0.0014" y="1" relative="1" as="geometry">
            <mxPoint as="offset" />
          </mxGeometry>
        </mxCell>
        <mxCell id="oS2J0Wrdn_PqmQfN7SfS-73" value="&lt;font style=&quot;font-size: 24px;&quot;&gt;BE-T2&lt;/font&gt;" style="edgeLabel;html=1;align=center;verticalAlign=middle;resizable=0;points=[];" parent="1" vertex="1" connectable="0">
          <mxGeometry x="880" y="270" as="geometry" />
        </mxCell>
        <mxCell id="oS2J0Wrdn_PqmQfN7SfS-74" value="&lt;font style=&quot;font-size: 24px;&quot;&gt;Tele2 Digital&lt;/font&gt;" style="edgeLabel;html=1;align=center;verticalAlign=middle;resizable=0;points=[];" parent="1" vertex="1" connectable="0">
          <mxGeometry x="880" y="410" as="geometry" />
        </mxCell>
        <mxCell id="m-A_8NVtthORfa7GAGQP-2" value="" style="edgeStyle=orthogonalEdgeStyle;rounded=0;orthogonalLoop=1;jettySize=auto;html=1;" edge="1" parent="1" source="oS2J0Wrdn_PqmQfN7SfS-28" target="m-A_8NVtthORfa7GAGQP-1">
          <mxGeometry relative="1" as="geometry">
            <mxPoint x="840" y="470" as="sourcePoint" />
            <mxPoint x="1260" y="470" as="targetPoint" />
          </mxGeometry>
        </mxCell>
        <mxCell id="m-A_8NVtthORfa7GAGQP-1" value="Test" style="rounded=1;whiteSpace=wrap;html=1;" vertex="1" parent="1">
          <mxGeometry x="920" y="440" width="120" height="60" as="geometry" />
        </mxCell>
        <mxCell id="m-A_8NVtthORfa7GAGQP-4" value="" style="edgeStyle=orthogonalEdgeStyle;rounded=0;orthogonalLoop=1;jettySize=auto;html=1;" edge="1" parent="1" source="oS2J0Wrdn_PqmQfN7SfS-29" target="m-A_8NVtthORfa7GAGQP-3">
          <mxGeometry relative="1" as="geometry">
            <mxPoint x="1240" y="470" as="sourcePoint" />
            <mxPoint x="1460" y="470" as="targetPoint" />
          </mxGeometry>
        </mxCell>
        <mxCell id="m-A_8NVtthORfa7GAGQP-3" value="&lt;div&gt;Ready to Merge&lt;/div&gt;" style="rounded=1;whiteSpace=wrap;html=1;" vertex="1" parent="1">
          <mxGeometry x="1320" y="440" width="120" height="60" as="geometry" />
        </mxCell>
      </root>
    </mxGraphModel>
  </diagram>
</mxfile>
